<svg width="56" height="57" viewBox="0 0 56 57" fill="none" xmlns="http://www.w3.org/2000/svg">
<path d="M27 6.22382C26.2551 6.22382 25.6523 6.82658 25.6523 7.57147V11.6144C25.6523 12.3593 26.2551 12.9621 27 12.9621C27.7449 12.9621 28.3477 12.3593 28.3477 11.6144V7.57147C28.3477 6.82658 27.7449 6.22382 27 6.22382Z" fill="#178EA8"/>
<path d="M19.8669 14.7045L17.1716 12.0092C16.6451 11.4828 15.7923 11.4828 15.2659 12.0092C14.7395 12.5356 14.7395 13.3885 15.2659 13.9149L17.9612 16.6102C18.4876 17.1366 19.3405 17.1366 19.8669 16.6102C20.3933 16.0838 20.3933 15.2309 19.8669 14.7045Z" fill="#178EA8"/>
<path d="M38.7341 12.0092C38.2077 11.4828 37.3548 11.4828 36.8284 12.0092L34.1331 14.7045C33.6067 15.2309 33.6067 16.0838 34.1331 16.6102C34.6595 17.1366 35.5124 17.1366 36.0387 16.6102L38.7341 13.9149C39.2604 13.3885 39.2604 12.5356 38.7341 12.0092Z" fill="#178EA8"/>
<path d="M48.6523 25.091H44.5195V43.9582H48.6523C49.3972 43.9582 50 43.3554 50 42.6105V26.4387C50 25.6938 49.3972 25.091 48.6523 25.091Z" fill="#59C8E0"/>
<path d="M5.34766 25.091C4.60276 25.091 4 25.6938 4 26.4387V42.6105C4 43.3554 4.60276 43.9582 5.34766 43.9582H9.48047V25.091H5.34766Z" fill="#59C8E0"/>
<path d="M25.9707 26.4387C24.9428 26.4387 24.019 27.0098 23.5597 27.9284L19.4575 36.1354C20.1445 36.4367 20.8709 36.5895 21.6132 36.5895C23.665 36.5895 25.5115 35.4459 26.4314 33.6033L27.3184 31.8293H29.9268C30.6362 31.8293 31.3311 32.1175 31.8325 32.6189L41.8241 42.6105V26.4387H25.9707Z" fill="#59C8E0"/>
<path d="M29.9269 34.5246H28.9846L28.9068 34.6804C27.6338 37.2262 25.1513 39.0236 22.3143 39.2555C20.2269 39.4263 18.7803 38.8258 17.065 38.0456C16.3674 37.7285 16.0639 36.8951 16.4066 36.2096L21.1481 26.7242C22.0613 24.8973 23.9285 23.7433 25.9708 23.7433H31.7867C32.16 22.9165 32.3906 22.0138 32.3906 21.048C32.3906 20.3031 31.7879 19.7003 31.043 19.7003H20.5802C19.0485 19.7003 17.6483 20.5656 16.9633 21.9356L15.7583 24.3457C15.5299 24.8024 15.0633 25.0909 14.5526 25.0909H12.1758V43.9581H18.356L22.174 47.776C23.2806 48.8827 24.8747 49.2321 26.2498 48.7723L37.7589 45.1544C38.4467 44.9608 39.0266 44.5824 39.4995 44.0971L29.9269 34.5246Z" fill="#59C8E0"/>
</svg>
